# xmcd CD database file
#
# Track frame offsets:
#	150
#	80648
#	128791
#	129645
#	163931
#
# Disc length: 3412 seconds
#
# Revision: 1
# Processed by: cddbd v1.5.2PL0 Copyright (c) Steve Scherf et al.
# Submitted via: CDex 1.51
#
DISCID=410d5205
DTITLE=John Coltrane - Live at Sutherland Lounge [CD2)
DYEAR=1961
DGENRE=Jazz
TTITLE0=Greensleeves
TTITLE1=Bye bye blackbird
TTITLE2=My favourite things (fragment)
TTITLE3=Mr. PC (fragmentary Coltrane solo)
TTITLE4=Blue train
EXTD=YEAR: 1961
EXTT0=
EXTT1=
EXTT2=
EXTT3=
EXTT4=
PLAYORDER=
